<svg width="113" height="58" viewBox="0 0 113 58" fill="none" xmlns="http://www.w3.org/2000/svg">
<path d="M43.1693 29.6684C44.6866 26.9062 42.9111 23.6718 39.9463 22.9239C37.2414 22.2404 33.7736 23.7709 33.5504 26.8038C33.3172 29.9837 36.9082 31.6298 39.1352 33.1008C41.0939 34.3952 44.2702 37.2003 42.5014 39.8139C41.8101 40.8342 40.416 41.422 39.2268 40.9515C37.9459 40.443 37.313 39.0924 37.4812 37.7931C37.5678 37.1293 36.8449 36.5548 36.232 36.5548C35.4858 36.5548 35.0694 37.126 34.9828 37.7931C34.6463 40.3984 36.6517 43.0896 39.2717 43.5172C42.04 43.9679 44.9032 41.9999 45.3645 39.2344C45.8776 36.1552 43.8755 33.5186 41.532 31.7602C40.3427 30.8687 39.0419 30.1455 37.8177 29.3051C36.9699 28.7223 35.6041 27.6657 36.1687 26.4885C37.4063 23.9063 42.518 25.6778 41.0106 28.4218C40.2411 29.8219 42.3981 31.0734 43.1676 29.6717L43.1693 29.6684Z" fill="#021A1A"/>
<path d="M45.7142 26.6569C46.6169 30.7217 47.0617 37.4777 47.3998 41.6267C47.5314 43.2315 49.7283 43.2051 49.8982 41.6267C50.0581 40.1425 50.203 38.6565 50.3762 37.1756C50.4195 36.8074 50.6577 34.8163 51.4305 35.267C51.7204 35.4354 51.7986 36.1008 51.8569 36.3748C51.9819 36.9708 52.0452 37.5817 52.1301 38.1843C52.3383 39.6637 52.5482 41.143 52.7564 42.6207C52.8496 43.2811 53.7041 43.6493 54.2937 43.4858C55.0133 43.286 55.2598 42.6306 55.1665 41.9619C54.8884 39.9906 54.6635 38.0044 54.3287 36.043C54.0789 34.5835 53.3443 33.0348 51.7237 32.7607C49.9232 32.4553 48.5291 33.9627 48.1226 35.5625C47.6313 37.5008 47.613 39.6406 47.3998 41.6251H49.8982C49.5417 37.2598 49.072 30.2743 48.1226 25.9981C47.7779 24.4428 45.3677 25.1 45.7142 26.6569Z" fill="#021A1A"/>
<path d="M60.8431 31.6479C61.0346 30.3981 62.1189 29.3976 63.4481 29.8747C64.9355 30.408 64.9988 32.2242 65.0504 33.5466C65.2053 37.4397 65.3269 41.3345 65.4635 45.2293C65.5201 46.8192 68.0185 46.8258 67.9619 45.2293C67.8703 42.6619 67.7803 40.0929 67.6887 37.5256C67.6454 36.2956 67.6021 35.0639 67.5588 33.8339C67.5205 32.7839 67.4805 31.6942 67.1674 30.6821C66.5461 28.6728 64.7589 27.1753 62.5703 27.2892C60.5233 27.3949 58.7411 28.9749 58.4313 30.9892C58.3296 31.6545 58.6011 32.3133 59.304 32.5131C59.8937 32.6798 60.7398 32.3084 60.8414 31.6479H60.8431Z" fill="#021A1A"/>
<path d="M65.7734 37.6164C64.0612 36.0413 61.8676 34.3639 59.3741 35.1432C57.2422 35.8085 56.2361 38.12 56.4527 40.2036C56.6775 42.3697 58.1932 44.4649 60.5984 44.3229C63.0918 44.1743 64.5575 42.1452 65.6785 40.1771C66.4696 38.787 64.3127 37.5388 63.5215 38.9273C62.9119 39.9972 62.2373 41.3345 60.9781 41.7539C59.7189 42.1732 59.0294 41.0819 58.9294 39.9724C58.8395 38.9554 59.2026 37.6065 60.3902 37.453C61.8276 37.2664 63.0468 38.4881 64.0062 39.3698C65.1838 40.4529 66.9543 38.7061 65.7734 37.6181V37.6164Z" fill="#021A1A"/>
<path d="M68.5013 34.0271C70.7865 37.3258 72.5288 40.9267 73.6647 44.767C74.1161 46.2925 76.5279 45.6437 76.0732 44.1082C74.8789 40.0748 73.0584 36.2427 70.6583 32.7772C69.7539 31.4713 67.5869 32.7096 68.5013 34.0271Z" fill="#021A1A"/>
<path d="M77.9238 33.9511C74.7724 32.5643 71.4196 34.4646 71.0898 37.8789C70.9365 39.4639 73.4366 39.454 73.5882 37.8789C73.7281 36.4343 75.3154 35.4965 76.6629 36.0892C77.2842 36.3633 77.9987 36.2626 78.3718 35.6451C78.6883 35.1201 78.5384 34.2219 77.9238 33.9511Z" fill="#021A1A"/>
<path d="M80.4291 34.0948C80.4124 35.6946 80.3791 37.2961 80.3774 38.8976C80.3774 40.2547 80.484 41.6878 81.2802 42.8402C81.9731 43.8441 83.0641 44.5639 84.3249 44.5127C85.5858 44.4616 86.7001 43.6327 87.0799 42.4225C87.5579 40.897 85.1477 40.2448 84.6714 41.7638C84.5431 42.1716 83.9768 42.0494 83.712 41.8612C83.1307 41.4451 82.9591 40.618 82.9025 39.9609C82.7409 38.0292 82.9058 36.0314 82.9258 34.0948C82.9425 32.4999 80.4441 32.4999 80.4274 34.0948H80.4291Z" fill="#021A1A"/>
<path d="M82.0981 29.7674C83.7054 29.7674 83.7088 27.2909 82.0981 27.2909C80.4875 27.2909 80.4875 29.7674 82.0981 29.7674Z" fill="#021A1A"/>
<path d="M87.2447 33.0579C89.0352 36.142 90.0046 39.5927 90.0712 43.1506H92.5697C92.503 41.2965 92.4864 39.4424 92.5297 37.5867C92.548 36.7612 92.2149 33.3221 93.579 33.3105C95.0198 33.2973 95.3362 36.0644 95.5278 37.0204C95.9009 38.8926 96.0591 40.788 96.0541 42.6933C96.0508 44.2865 98.5492 44.2898 98.5525 42.6933C98.5592 40.1507 98.276 37.59 97.6614 35.12C97.1551 33.0876 95.9575 30.8455 93.534 30.8389C90.9673 30.8307 90.2028 33.4591 90.1029 35.5212C89.978 38.0622 89.9813 40.6081 90.0729 43.1506C90.1295 44.7373 92.6013 44.7505 92.5713 43.1506C92.4964 39.1601 91.4121 35.267 89.4033 31.8081C88.6022 30.4278 86.4419 31.6727 87.2464 33.0579H87.2447Z" fill="#021A1A"/>
<path d="M111.088 33.4129C110.062 31.3805 107.68 30.4097 105.478 30.8323C103.128 31.2847 101.374 33.2098 100.626 35.3859C99.8783 37.5619 99.8817 40.5321 101.456 42.3614C103.141 44.3179 105.871 44.062 107.447 42.1501C109.214 40.0054 110.375 37.2135 111.269 34.6165C111.789 33.1041 109.377 32.4553 108.861 33.9577C108.14 36.0529 107.197 38.0886 105.986 39.9526C105.6 40.547 105 41.4402 104.169 41.2652C103.246 41.072 102.853 40.0368 102.725 39.2245C102.428 37.3324 102.991 35.0391 104.614 33.8686C106.044 32.8367 108.091 33.0001 108.931 34.6627C109.65 36.0875 111.806 34.8361 111.088 33.4129Z" fill="#021A1A"/>
<path d="M110.5 31.4729C110.27 34.5851 110.059 37.7006 109.807 40.8111C109.594 43.4429 109.153 46.0697 107.46 48.1978C104.795 51.5478 99.3405 53.5653 95.4846 50.9666C94.7068 50.4416 93.819 49.4889 93.8423 48.4884C93.8457 48.3712 93.8456 48.107 93.9456 48.0129C93.884 48.0707 93.9189 47.9056 94.1055 48.0823C94.6052 48.5561 94.6668 49.2726 94.7684 49.9281C94.9816 51.2935 97.3751 50.9881 97.2218 49.5995C97.1685 49.1174 96.9587 48.0806 97.3318 47.6695C97.6166 47.3558 98.033 47.62 98.2412 47.9254C99.0823 49.1604 97.6882 51.3645 96.902 52.3072C94.6485 55.0083 90.7843 55.8487 87.5996 54.305C86.1605 53.6082 84.893 55.743 86.3387 56.443C91.3422 58.8684 97.6299 57.0176 100.088 51.9341C101.178 49.6804 101.517 46.1621 98.5293 45.1979C97.3268 44.8099 96.0093 45.1996 95.2881 46.2529C94.6202 47.227 94.6018 48.4686 94.7251 49.5995L97.1785 49.271C96.9204 47.62 96.2042 45.888 94.342 45.5809C92.5981 45.292 91.3872 46.7829 91.3489 48.391C91.2723 51.5246 94.4286 53.7304 97.2052 54.3429C103.638 55.7628 110.21 51.1697 111.718 44.9767C112.222 42.903 112.314 40.7418 112.471 38.6219C112.647 36.2394 112.824 33.857 112.998 31.4762C113.117 29.8863 110.617 29.8929 110.5 31.4762V31.4729Z" fill="#021A1A"/>
<path d="M54.6704 56.321L51.6123 49.3867H53.0214L55.7497 55.6573H54.9402L57.6984 49.3867H58.9976L55.9496 56.321H54.6704Z" fill="#021A1A"/>
<path d="M62.9451 56.42C62.3988 56.42 61.8957 56.3309 61.436 56.1526C60.9763 55.9742 60.5766 55.7249 60.2368 55.4046C59.897 55.0843 59.6339 54.7079 59.4473 54.2753C59.2608 53.8428 59.1675 53.3689 59.1675 52.8538C59.1675 52.3387 59.2608 51.8648 59.4473 51.4323C59.6339 50.9997 59.897 50.6233 60.2368 50.303C60.5766 49.9827 60.9763 49.7334 61.436 49.5551C61.8957 49.3768 62.3954 49.2876 62.9351 49.2876C63.4747 49.2876 63.9828 49.3768 64.4391 49.5551C64.8955 49.7334 65.2936 49.9827 65.6334 50.303C65.9732 50.6233 66.2363 50.9997 66.4229 51.4323C66.6094 51.8648 66.7027 52.3387 66.7027 52.8538C66.7027 53.3689 66.6094 53.8444 66.4229 54.2803C66.2363 54.7162 65.9732 55.0926 65.6334 55.4096C65.2936 55.7266 64.8955 55.9742 64.4391 56.1526C63.9828 56.3309 63.4847 56.42 62.9451 56.42ZM62.9351 55.2907C63.2882 55.2907 63.6147 55.2313 63.9145 55.1124C64.2143 54.9935 64.4741 54.8235 64.694 54.6022C64.9138 54.381 65.0854 54.1234 65.2086 53.8296C65.3319 53.5357 65.3935 53.2104 65.3935 52.8538C65.3935 52.4972 65.3319 52.1719 65.2086 51.8781C65.0854 51.5842 64.9138 51.3266 64.694 51.1054C64.4741 50.8841 64.2143 50.7141 63.9145 50.5952C63.6147 50.4763 63.2882 50.4169 62.9351 50.4169C62.582 50.4169 62.2572 50.4763 61.9607 50.5952C61.6642 50.7141 61.4044 50.8841 61.1812 51.1054C60.958 51.3266 60.7848 51.5842 60.6615 51.8781C60.5383 52.1719 60.4766 52.4972 60.4766 52.8538C60.4766 53.2104 60.5383 53.5274 60.6615 53.8246C60.7848 54.1218 60.9563 54.381 61.1762 54.6022C61.3961 54.8235 61.6559 54.9935 61.9557 55.1124C62.2555 55.2313 62.582 55.2907 62.9351 55.2907Z" fill="#021A1A"/>
<path d="M71.3197 56.42C70.7867 56.42 70.292 56.3325 69.8356 56.1575C69.3792 55.9825 68.9828 55.7348 68.6464 55.4146C68.3099 55.0943 68.0484 54.7162 67.8619 54.2803C67.6753 53.8444 67.582 53.3689 67.582 52.8538C67.582 52.3387 67.6753 51.8632 67.8619 51.4273C68.0484 50.9915 68.3116 50.6134 68.6514 50.2931C68.9911 49.9728 69.3876 49.7251 69.8406 49.5501C70.2936 49.3751 70.79 49.2876 71.3297 49.2876C71.9026 49.2876 72.4256 49.385 72.8987 49.5798C73.3717 49.7746 73.7714 50.0636 74.0979 50.4466L73.2584 51.2292C73.0053 50.9584 72.7221 50.7554 72.409 50.62C72.0958 50.4846 71.7561 50.4169 71.3896 50.4169C71.0232 50.4169 70.6884 50.4763 70.3853 50.5952C70.0821 50.7141 69.8189 50.8825 69.5958 51.1004C69.3726 51.3184 69.1993 51.5759 69.0761 51.8731C68.9528 52.1703 68.8912 52.4972 68.8912 52.8538C68.8912 53.2104 68.9528 53.5373 69.0761 53.8345C69.1993 54.1317 69.3726 54.3893 69.5958 54.6072C69.8189 54.8251 70.0821 54.9935 70.3853 55.1124C70.6884 55.2313 71.0232 55.2907 71.3896 55.2907C71.7561 55.2907 72.0958 55.223 72.409 55.0877C72.7221 54.9523 73.0053 54.7459 73.2584 54.4685L74.0979 55.261C73.7714 55.6374 73.3717 55.9247 72.8987 56.1228C72.4256 56.321 71.8993 56.42 71.3197 56.42Z" fill="#021A1A"/>
<path d="M78.4754 56.42C77.929 56.42 77.426 56.3309 76.9663 56.1526C76.5066 55.9742 76.1069 55.7249 75.7671 55.4046C75.4273 55.0843 75.1641 54.7079 74.9776 54.2753C74.791 53.8428 74.6978 53.3689 74.6978 52.8538C74.6978 52.3387 74.791 51.8648 74.9776 51.4323C75.1641 50.9997 75.4273 50.6233 75.7671 50.303C76.1069 49.9827 76.5066 49.7334 76.9663 49.5551C77.426 49.3768 77.9257 49.2876 78.4654 49.2876C79.005 49.2876 79.513 49.3768 79.9694 49.5551C80.4258 49.7334 80.8239 49.9827 81.1637 50.303C81.5034 50.6233 81.7666 50.9997 81.9532 51.4323C82.1397 51.8648 82.233 52.3387 82.233 52.8538C82.233 53.3689 82.1397 53.8444 81.9532 54.2803C81.7666 54.7162 81.5034 55.0926 81.1637 55.4096C80.8239 55.7266 80.4258 55.9742 79.9694 56.1526C79.513 56.3309 79.015 56.42 78.4754 56.42ZM78.4654 55.2907C78.8185 55.2907 79.1449 55.2313 79.4447 55.1124C79.7446 54.9935 80.0044 54.8235 80.2243 54.6022C80.4441 54.381 80.6157 54.1234 80.7389 53.8296C80.8622 53.5357 80.9238 53.2104 80.9238 52.8538C80.9238 52.4972 80.8622 52.1719 80.7389 51.8781C80.6157 51.5842 80.4441 51.3266 80.2243 51.1054C80.0044 50.8841 79.7446 50.7141 79.4447 50.5952C79.1449 50.4763 78.8185 50.4169 78.4654 50.4169C78.1123 50.4169 77.7875 50.4763 77.491 50.5952C77.1945 50.7141 76.9347 50.8841 76.7115 51.1054C76.4883 51.3266 76.3151 51.5842 76.1918 51.8781C76.0686 52.1719 76.0069 52.4972 76.0069 52.8538C76.0069 53.2104 76.0686 53.5274 76.1918 53.8246C76.3151 54.1218 76.4866 54.381 76.7065 54.6022C76.9263 54.8235 77.1862 54.9935 77.486 55.1124C77.7858 55.2313 78.1123 55.2907 78.4654 55.2907Z" fill="#021A1A"/>
<path d="M60.2335 16.4204C61.0613 16.8761 62.1323 16.8282 62.9135 16.2999C61.546 14.6637 59.932 13.0342 58.5662 11.398C57.3703 9.96658 56.1494 8.51368 54.5854 7.51151C51.4125 5.47909 47.1085 5.68547 43.9272 7.67661C40.7459 9.66774 39.5783 13.3116 39.0087 17.0643L39.022 17.1981C37.9793 17.4309 36.9033 17.5118 35.8373 17.4391L35.8407 17.3582C34.5781 13.7755 32.7493 10.4091 29.2498 9.03705C25.7504 7.66505 21.4848 8.25447 18.7465 10.835C17.3974 12.1063 16.4696 13.759 15.5635 15.3852C14.5258 17.2443 13.245 19.143 12.209 21.002C13.0751 21.3768 14.1378 21.2266 14.8656 20.6273C14.5408 21.7004 13.6414 22.6712 12.5904 23.0179L12.4871 23.0493C18.7182 26.7691 27.0562 26.4471 32.9558 22.2568C34.0252 21.4973 35.0512 20.6074 36.307 20.2459C38.6989 19.5574 41.134 20.9327 43.4575 21.8507C50.1 24.4758 58.0599 23.2606 63.6164 18.7715C62.2622 18.7187 60.9747 17.5778 60.2369 16.4188L60.2335 16.4204ZM28.1772 22.4005C25.0958 22.6861 22.3575 20.3812 22.0611 17.2526C21.7646 14.1239 24.0248 11.3551 27.1062 11.0695C30.1876 10.7838 32.9258 13.0887 33.2223 16.2174C33.5188 19.3461 31.2586 22.1148 28.1772 22.4005ZM47.6615 20.5926C44.5801 20.8782 41.8419 18.5734 41.5454 15.4447C41.2489 12.316 43.5091 9.54722 46.5905 9.26159C49.6719 8.97597 52.4102 11.2808 52.7066 14.4095C53.0014 17.5382 50.7429 20.307 47.6615 20.5926Z" fill="#021A1A"/>
<path d="M30.454 16.4733C30.4306 16.2289 30.3757 15.9961 30.2974 15.7765C30.1392 16.427 29.5928 16.9356 28.8983 16.9999C28.0188 17.0808 27.2377 16.4237 27.1544 15.5322C27.0878 14.8272 27.4775 14.1866 28.0771 13.9092C27.8489 13.8729 27.6141 13.8597 27.3726 13.8828C25.8202 14.0265 24.6826 15.4216 24.8309 16.9983C24.9791 18.575 26.3582 19.7357 27.9106 19.5921C29.4629 19.4484 30.6005 18.0533 30.4523 16.4766L30.454 16.4733Z" fill="#021A1A"/>
<path d="M49.9369 14.6671C49.9135 14.4227 49.8586 14.1899 49.7803 13.9703C49.6237 14.6208 49.0757 15.1293 48.3812 15.1937C47.5017 15.2746 46.7206 14.6175 46.6373 13.726C46.5707 13.021 46.9604 12.3804 47.56 12.103C47.3319 12.0667 47.097 12.0535 46.8555 12.0766C45.3031 12.2202 44.1655 13.6153 44.3138 15.1921C44.462 16.7688 45.8411 17.9295 47.3935 17.7858C48.9458 17.6422 50.0834 16.2471 49.9352 14.6704L49.9369 14.6671Z" fill="#021A1A"/>
<path d="M77.7159 13.4734C76.2519 11.2362 73.7151 10.097 71.0552 10.5659C68.3952 11.0348 66.5247 12.8608 65.6369 15.2251C64.7741 17.5233 65.0356 20.3845 66.598 22.3295C68.3652 24.5303 71.34 24.4329 73.4586 22.7785C75.8371 20.9228 77.3745 17.8304 78.2773 15.0286C78.7669 13.5064 76.3568 12.8559 75.8688 14.3699C75.1426 16.6252 73.9367 19.0951 72.1112 20.6834C71.3516 21.3438 70.234 21.8771 69.248 21.3834C68.4152 20.9674 67.9838 20.0015 67.7822 19.1479C67.3042 17.1254 68.092 14.7215 69.9176 13.6087C71.7431 12.496 74.2998 12.8014 75.5573 14.7215C76.4301 16.0539 78.5937 14.814 77.7143 13.4717L77.7159 13.4734Z" fill="#021A1A"/>
<path d="M80.206 1.10223C77.8974 6.24682 76.7182 11.8438 76.9147 17.482C77.003 20.0098 77.2911 22.8991 79.6646 24.3784C81.8999 25.7718 84.8863 24.5138 85.1495 21.8622C85.2161 21.1952 84.5282 20.6239 83.9003 20.6239C83.1691 20.6239 82.7177 21.1936 82.6511 21.8622C82.5894 22.4747 81.685 22.5903 81.2386 22.4153C80.5124 22.1313 80.0527 21.3851 79.8195 20.685C79.1883 18.7814 79.3348 16.4865 79.4348 14.5119C79.6446 10.3331 80.6457 6.17748 82.3613 2.3537C82.6377 1.73787 82.5361 1.02958 81.9132 0.659751C81.3835 0.346056 80.4774 0.494648 80.2043 1.10388L80.206 1.10223Z" fill="#021A1A"/>
<path d="M15.429 7.99855C14.6145 4.75594 11.7663 2.16383 8.40341 1.74777C5.04054 1.33171 1.90086 3.3179 0.59336 6.28149C-1.04893 10.0062 1.163 13.3842 3.16173 16.4452C5.30537 19.7274 7.17085 23.3399 8.27848 27.1059C8.69822 28.5324 9.18291 30.9412 7.46067 31.7502C5.79506 32.5328 4.34598 31.108 4.55085 29.4487C4.63246 28.7833 3.91792 28.2104 3.30164 28.2104C2.55878 28.2104 2.13572 28.7817 2.05243 29.4487C1.5844 33.218 5.99493 35.7771 9.12128 33.6456C12.4825 31.3523 10.9318 26.7955 9.73256 23.7642C8.97471 21.8457 8.1036 19.9701 7.1059 18.1623C6.1082 16.3544 4.99057 14.7942 3.95123 13.092C3.09011 11.6803 2.24398 10.031 2.54379 8.32876C2.81029 6.81312 3.87628 5.51046 5.2121 4.7708C8.40674 3.00255 12.1993 5.38993 13.0205 8.65731C13.4086 10.2027 15.8187 9.54887 15.429 7.99855Z" fill="#021A1A"/>
<path d="M2.53693 23.6272C2.35537 22.0703 3.00496 20.7412 4.40574 19.985C5.95642 19.1479 7.7886 18.9564 9.28265 17.984C10.5652 17.1502 11.6328 15.8195 11.6578 14.2378C11.6828 12.6561 10.7451 11.3667 9.29098 10.8746C7.76528 10.3595 7.11069 12.7502 8.6264 13.262C9.69738 13.6236 8.94786 15.0451 8.44151 15.514C7.4105 16.4667 5.90479 16.7259 4.62394 17.2014C3.22316 17.7214 1.9423 18.4281 1.06286 19.6614C0.250044 20.8006 -0.124719 22.2403 0.0368454 23.6255C0.115129 24.2892 0.55485 24.8638 1.28605 24.8638C1.90066 24.8638 2.61354 24.2942 2.53526 23.6255L2.53693 23.6272Z" fill="#021A1A"/>
</svg>
