<svg width="42" height="78" viewBox="0 0 42 78" fill="none" xmlns="http://www.w3.org/2000/svg">
<path d="M35.91 77.63H0V19.83H35.92V77.63H35.91ZM3.92 73.71H32V23.75H3.92V73.71Z" fill="#003B23"/>
<path d="M1.95996 37.26V75.67H33.96V37.26H1.95996ZM8.96996 46.8199C8.96996 45.6799 9.89996 44.75 11.04 44.75C12.18 44.75 13.11 45.6799 13.11 46.8199C13.11 47.9599 12.18 48.89 11.04 48.89C9.89996 48.89 8.96996 47.9599 8.96996 46.8199ZM14.22 67.75C12.16 67.75 10.49 66.08 10.49 64.02C10.49 61.96 12.16 60.29 14.22 60.29C16.28 60.29 17.95 61.96 17.95 64.02C17.95 66.08 16.28 67.75 14.22 67.75ZM22.51 56.0601C21.37 56.0601 20.44 55.13 20.44 53.99C20.44 52.85 21.37 51.92 22.51 51.92C23.65 51.92 24.58 52.85 24.58 53.99C24.58 55.13 23.65 56.0601 22.51 56.0601Z" fill="#003B23"/>
<path d="M24.62 42.55L20.72 42.16L23.5 14.36L38.35 0L41.08 2.81995L27.25 16.1801L24.62 42.55Z" fill="#003B23"/>
</svg>
