<svg width="58" height="36" viewBox="0 0 58 36" fill="none" xmlns="http://www.w3.org/2000/svg">
<path d="M2.44705 32.46C2.44705 32.46 11.897 41.91 39.317 29.94C66.737 17.97 57.597 4.73 47.827 0C47.827 0 51.607 6.3 50.037 9.45C48.457 12.6 45.307 4.72 36.177 0C36.177 0 29.247 0.630001 23.887 2.21C23.887 2.21 37.117 9.14 34.917 15.76C34.917 15.76 23.257 5.99 17.587 6.31C17.587 6.31 9.70705 9.46 8.13705 10.72C8.13705 10.72 21.057 16.39 21.687 20.84C21.687 20.84 9.39705 17.41 4.66705 18C4.66705 18 -4.15295 25.21 2.45705 32.46H2.44705Z" fill="#003B23"/>
</svg>
