<svg width="62" height="51" viewBox="0 0 62 51" fill="none" xmlns="http://www.w3.org/2000/svg">
<path d="M61.1387 2.71008L15.8908 0.329554C9.05688 -0.032702 3.04511 4.82155 1.86331 11.6113C0.46569 19.6326 -0.376975 30.2933 2.52102 38.8529C7.91623 54.7922 27.6884 48.4268 27.6884 48.4268L14.6885 46.3464L10.7834 32.3323L12.6845 15.2959L23.3105 10.6073L61.1284 2.71008H61.1387Z" fill="#003B23"/>
<path d="M28.3872 35.634C28.8291 37.2487 27.339 39.0703 25.0576 39.7017C22.7762 40.333 20.5769 39.5361 20.135 37.9111C19.6931 36.2965 21.1833 34.4748 23.4647 33.8435C25.7461 33.2121 27.9453 34.0091 28.3872 35.634Z" fill="#003B23"/>
<path d="M43.278 23.576C42.9594 25.9566 40.5342 27.6022 37.8417 27.24C35.1595 26.8777 33.2377 24.6525 33.5563 22.2719C33.8749 19.8914 36.3002 18.2457 38.9927 18.608C41.6749 18.9702 43.5966 21.1955 43.278 23.576Z" fill="#003B23"/>
<path d="M51.1498 34.0297C50.9957 34.7439 50.0605 35.1371 49.0534 34.9198C48.0463 34.7024 47.3578 33.9469 47.5119 33.2327C47.6661 32.5185 48.6012 32.1253 49.6083 32.3426C50.6154 32.56 51.304 33.3155 51.1498 34.0297Z" fill="#003B23"/>
<path d="M24.3588 21.3817C24.5849 22.2304 23.8038 23.1826 22.622 23.5035C21.4299 23.8347 20.279 23.4103 20.0529 22.572C19.8268 21.7232 20.6078 20.771 21.7896 20.4502C22.9817 20.119 24.1327 20.5434 24.3588 21.3817Z" fill="#003B23"/>
<path d="M57.8091 39.7949L22.2212 46.3776C19.8576 46.8123 17.4323 46.1809 15.5825 44.6284C13.7327 43.0758 12.6743 40.7988 12.6743 38.3769V21.1853C12.6743 17.1591 15.5312 13.7849 19.4774 13.1432L57.7988 6.96416V12.7188C58.7031 11.9736 60.0596 11.4975 61.5703 11.4975V2.50317L18.871 9.38606C13.0853 10.3176 8.89246 15.2753 8.89246 21.1749V38.3665C8.89246 41.927 10.4442 45.2701 13.1573 47.5471C15.3051 49.3481 17.9873 50.3106 20.7311 50.3106C21.4505 50.3106 22.1698 50.2485 22.8892 50.114L61.5703 42.9517V18.37C60.0596 18.37 58.7031 17.8939 57.7988 17.1487V39.7845L57.8091 39.7949Z" fill="#003B23"/>
<path d="M61.5805 18.0904C59.9671 17.4177 58.8881 16.2481 58.8881 14.8922C58.8881 13.5363 59.9671 12.3667 61.5805 11.694V11.1144C58.4051 11.1144 55.8257 12.8015 55.8257 14.8922C55.8257 16.983 58.4051 18.6701 61.5805 18.6701V18.0904Z" fill="#003B23"/>
</svg>
