<svg width="61" height="77" viewBox="0 0 61 77" fill="none" xmlns="http://www.w3.org/2000/svg">
<path d="M3.44895 32.5129C10.6096 22.9612 19.1365 23.6443 21.8692 25.6938C23.438 26.8704 26.0316 27.9331 27.9419 28.6289C28.0052 23.9353 27.1828 17.306 22.2615 16.1927L23.5266 10.6261C32.1675 12.5744 33.673 21.949 33.673 28.3253C35.4568 27.6421 37.5695 26.7059 38.9358 25.6938C41.6685 23.6443 50.1956 22.9612 57.3563 32.5129C64.5169 42.0647 62.8089 76.16 30.4089 76.16C-1.99121 76.16 -3.69904 42.0647 3.46161 32.5129H3.44895Z" fill="#003B23"/>
<path d="M34.6345 18.8874C34.6345 18.8874 31.3958 7.2735 41.9217 2.18766C41.9217 2.18766 48.9307 -1.49387 58.6595 0.694812C58.6595 0.694812 58.3937 16.2053 47.6148 19.8869C47.6148 19.8869 41.7952 22.5563 36.2666 20.5447C36.2666 20.5447 38.7337 12.7262 51.0561 6.93191C51.0561 6.93191 40.2517 8.45007 34.6345 18.8748V18.8874Z" fill="#003B23"/>
</svg>
