<svg width="47" height="47" viewBox="0 0 47 47" fill="none" xmlns="http://www.w3.org/2000/svg">
<g clip-path="url(#clip0_376_2615)">
<path d="M43.5495 17.4265H40.5957C40.3877 16.8414 40.1496 16.2674 39.8824 15.7068L41.9717 13.6174C42.6174 12.9696 42.98 12.0923 42.98 11.1776C42.98 10.2629 42.6174 9.38559 41.9717 8.73778L38.2623 5.02827C37.6145 4.38261 36.7371 4.02006 35.8225 4.02006C34.9079 4.02006 34.0305 4.38261 33.3827 5.02827L31.2936 7.11756C30.7329 6.85041 30.1589 6.61234 29.5737 6.4043V3.45046C29.5727 2.53561 29.2088 1.65854 28.5619 1.01167C27.915 0.364805 27.0379 0.000971843 26.123 0L20.877 0C19.9622 0.00104472 19.0852 0.36491 18.4383 1.01177C17.7914 1.65863 17.4276 2.53566 17.4265 3.45046V6.4043C16.8414 6.6124 16.2674 6.85047 15.7068 7.11756L13.6174 5.02827C12.9698 4.38213 12.0924 4.01926 11.1776 4.01926C10.2628 4.01926 9.38536 4.38213 8.73778 5.02827L5.02827 8.73778C4.38261 9.38561 4.02006 10.263 4.02006 11.1776C4.02006 12.0922 4.38261 12.9696 5.02827 13.6174L7.11756 15.7067C6.85041 16.2674 6.61231 16.8414 6.40421 17.4265H3.45046C2.53566 17.4276 1.65863 17.7914 1.01177 18.4383C0.36491 19.0852 0.00104472 19.9622 0 20.877L0 26.1229C0.00102043 27.0377 0.364875 27.9148 1.01174 28.5617C1.6586 29.2085 2.53565 29.5724 3.45046 29.5735H6.40421C6.61231 30.1587 6.85041 30.7328 7.11756 31.2936L5.02827 33.3829C4.38261 34.0307 4.02006 34.908 4.02006 35.8227C4.02006 36.7373 4.38261 37.6147 5.02827 38.2625L8.73778 41.972C9.38537 42.6181 10.2628 42.981 11.1776 42.981C12.0924 42.981 12.9698 42.6181 13.6174 41.972L15.7068 39.8827C16.2674 40.1498 16.8414 40.3879 17.4265 40.596V43.5498C17.4277 44.4646 17.7915 45.3415 18.4384 45.9883C19.0853 46.6351 19.9622 46.999 20.877 47H26.123C27.0378 46.999 27.9148 46.6351 28.5617 45.9882C29.2086 45.3414 29.5724 44.4643 29.5735 43.5495V40.5957C30.1586 40.3877 30.7326 40.1496 31.2933 39.8824L33.3827 41.9717C34.0302 42.6178 34.9077 42.9807 35.8224 42.9807C36.7372 42.9807 37.6146 42.6178 38.2622 41.9717L41.9718 38.2622C42.6175 37.6144 42.9801 36.737 42.9801 35.8224C42.9801 34.9078 42.6175 34.0304 41.9718 33.3826L39.8824 31.2936C40.1496 30.7329 40.3876 30.1589 40.5957 29.5738H43.5495C44.4644 29.5728 45.3415 29.2089 45.9884 28.5619C46.6353 27.9149 46.9991 27.0378 47 26.1229V20.877C46.999 19.9622 46.6351 19.0852 45.9882 18.4383C45.3414 17.7914 44.4643 17.4276 43.5495 17.4265ZM44.0625 26.1229C44.0607 26.2584 44.0061 26.3879 43.9103 26.4837C43.8145 26.5796 43.685 26.6342 43.5495 26.636H39.5254C39.2066 26.636 38.8965 26.7399 38.6419 26.9317C38.3873 27.1236 38.202 27.3931 38.1141 27.6995C37.7978 28.8 37.3577 29.8609 36.8021 30.8621C36.6474 31.1411 36.5876 31.4628 36.632 31.7788C36.6763 32.0947 36.8224 32.3876 37.0479 32.6131L39.8949 35.4597C39.9896 35.5566 40.0426 35.6867 40.0426 35.8223C40.0426 35.9578 39.9896 36.0879 39.8949 36.1849L36.1852 39.8949C36.0881 39.9893 35.958 40.0421 35.8226 40.0421C35.6872 40.0421 35.5571 39.9893 35.46 39.8949L32.6132 37.0481C32.3876 36.8225 32.0947 36.6765 31.7787 36.6322C31.4628 36.5878 31.141 36.6476 30.862 36.8024C29.8609 37.3579 28.7999 37.7979 27.6995 38.1141C27.393 38.202 27.1235 38.3874 26.9316 38.642C26.7397 38.8967 26.636 39.2069 26.636 39.5258V43.5499C26.6341 43.6853 26.5794 43.8147 26.4836 43.9104C26.3878 44.0062 26.2584 44.0607 26.123 44.0625H20.877C20.7415 44.0607 20.6121 44.0061 20.5163 43.9103C20.4204 43.8145 20.3658 43.685 20.364 43.5495V39.5254C20.364 39.2067 20.2602 38.8965 20.0684 38.6419C19.8765 38.3873 19.6071 38.202 19.3007 38.1141C18.2002 37.7977 17.1392 37.3576 16.1379 36.8021C15.8589 36.6474 15.5372 36.5877 15.2213 36.632C14.9054 36.6764 14.6125 36.8224 14.387 37.0479L11.5403 39.8949C11.4433 39.9894 11.3132 40.0423 11.1777 40.0423C11.0423 40.0423 10.9122 39.9894 10.8151 39.8949L7.10508 36.1852C7.01039 36.0883 6.95738 35.9581 6.95738 35.8226C6.95738 35.6871 7.01039 35.557 7.10508 35.46L9.95188 32.6132C10.1775 32.3876 10.3235 32.0947 10.3678 31.7788C10.4121 31.4629 10.3524 31.1411 10.1976 30.8621C9.6421 29.861 9.20206 28.8 8.88594 27.6995C8.79797 27.393 8.61264 27.1235 8.35796 26.9316C8.10327 26.7397 7.79306 26.636 7.47419 26.636H3.45046C3.31495 26.6342 3.1855 26.5796 3.08968 26.4837C2.99387 26.3879 2.93926 26.2584 2.9375 26.1229V20.877C2.93926 20.7415 2.99387 20.612 3.08969 20.5162C3.18551 20.4204 3.31496 20.3658 3.45046 20.364H7.47456C7.79337 20.364 8.10349 20.2601 8.35811 20.0683C8.61272 19.8764 8.79799 19.6069 8.88594 19.3005C9.20214 18.2 9.64228 17.139 10.1979 16.1379C10.3527 15.8589 10.4124 15.5371 10.3681 15.2212C10.3237 14.9053 10.1777 14.6124 9.95216 14.3868L7.10508 11.5403C7.01032 11.4434 6.95727 11.3133 6.95727 11.1777C6.95727 11.0422 7.01032 10.9121 7.10508 10.8151L10.8146 7.10563C10.9117 7.01118 11.0417 6.95833 11.1772 6.95833C11.3126 6.95833 11.4427 7.01118 11.5398 7.10563L14.3866 9.95234C14.6122 10.1779 14.905 10.3239 15.2209 10.3682C15.5368 10.4126 15.8586 10.3529 16.1375 10.1982C17.1389 9.6426 18.2001 9.20238 19.3007 8.88594C19.6071 8.79794 19.8766 8.6126 20.0685 8.35791C20.2603 8.10323 20.364 7.79304 20.364 7.47419V3.45046C20.3658 3.31497 20.4204 3.18553 20.5163 3.08971C20.6121 2.9939 20.7415 2.93928 20.877 2.9375H26.123C26.2585 2.93928 26.3879 2.9939 26.4838 3.08971C26.5796 3.18553 26.6342 3.31497 26.636 3.45046V7.47456C26.636 7.79337 26.7399 8.10349 26.9317 8.35811C27.1236 8.61272 27.3931 8.79799 27.6995 8.88594C28.8 9.20217 29.861 9.64231 30.8621 10.1979C31.1411 10.3527 31.4629 10.4124 31.7788 10.3681C32.0948 10.3238 32.3877 10.1778 32.6133 9.95216L35.4599 7.10508C35.5568 7.01037 35.6869 6.95734 35.8224 6.95734C35.958 6.95734 36.0881 7.01037 36.185 7.10508L39.8945 10.8146C39.9892 10.9115 40.0422 11.0417 40.0422 11.1772C40.0422 11.3127 39.9892 11.4429 39.8945 11.5398L37.0478 14.3866C36.8222 14.6122 36.6762 14.905 36.6318 15.221C36.5875 15.5369 36.6472 15.8586 36.8019 16.1376C37.3576 17.1389 37.7978 18.1999 38.1141 19.3005C38.202 19.607 38.3874 19.8765 38.642 20.0684C38.8967 20.2603 39.2069 20.364 39.5258 20.364H43.5499C43.6853 20.3659 43.8147 20.4205 43.9104 20.5164C44.0062 20.6122 44.0607 20.7416 44.0625 20.877V26.1229ZM23.5 13.2881C21.4803 13.2882 19.5059 13.8871 17.8266 15.0092C16.1473 16.1313 14.8384 17.7262 14.0655 19.5922C13.2926 21.4581 13.0904 23.5114 13.4845 25.4923C13.8785 27.4732 14.8511 29.2928 16.2793 30.7209C17.7074 32.149 19.527 33.1216 21.5079 33.5156C23.4888 33.9097 25.5421 33.7074 27.408 32.9345C29.274 32.1616 30.8689 30.8527 31.9909 29.1734C33.113 27.4941 33.7119 25.5197 33.7119 23.5C33.7089 20.7926 32.632 18.1969 30.7175 16.2825C28.8031 14.368 26.2074 13.2912 23.5 13.2881ZM23.5 30.7744C22.0613 30.7743 20.6549 30.3477 19.4586 29.5484C18.2624 28.749 17.33 27.6129 16.7794 26.2837C16.2289 24.9545 16.0848 23.4919 16.3655 22.0808C16.6462 20.6697 17.339 19.3736 18.3564 18.3562C19.3737 17.3389 20.6699 16.6461 22.081 16.3654C23.4921 16.0847 24.9547 16.2288 26.2839 16.7794C27.6131 17.33 28.7492 18.2623 29.5485 19.4586C30.3478 20.6549 30.7744 22.0613 30.7744 23.5C30.7723 25.4286 30.0051 27.2776 28.6414 28.6414C27.2776 30.0051 25.4286 30.7722 23.5 30.7744Z" fill="#03624C"/>
</g>
<defs>
<clipPath id="clip0_376_2615">
<rect width="47" height="47" fill="white"/>
</clipPath>
</defs>
</svg>
