<svg width="55" height="77" viewBox="0 0 55 77" fill="none" xmlns="http://www.w3.org/2000/svg">
<path d="M47.3568 12.28C47.3568 7.71 43.6567 4.01001 39.0867 4.01001C37.6267 4.01001 36.2468 4.39 35.0568 5.06C33.8068 2.09 30.8568 0 27.4268 0C23.9968 0 21.0568 2.09 19.7968 5.06C18.6068 4.39 17.2268 4.01001 15.7668 4.01001C11.1968 4.01001 7.49677 7.71 7.49677 12.28C7.49677 16.85 10.8568 20.19 15.1168 20.53V32.97H39.7368V20.53C43.9968 20.2 47.3568 16.63 47.3568 12.28Z" fill="#003B23"/>
<path fill-rule="evenodd" clip-rule="evenodd" d="M51.0867 64.8701C46.2467 61.4301 38.8268 63.26 34.2068 57.13C34.2068 57.13 32.4868 55.19 36.3568 50.46C40.2268 45.73 40.5467 38.2 39.5867 32.39C38.6167 26.58 33.1368 31.22 27.4368 31.22C21.7368 31.22 16.2568 26.58 15.2868 32.39C14.3168 38.2 14.6368 45.72 18.5168 50.46C22.3868 55.19 20.6668 57.13 20.6668 57.13C16.0468 63.26 8.62676 61.4301 3.78676 64.8701C-1.05324 68.3101 0.126784 76.16 0.126784 76.16H54.7468C54.7468 76.16 55.9267 68.3101 51.0867 64.8701Z" fill="#003B23"/>
</svg>
