<svg width="42" height="77" viewBox="0 0 42 77" fill="none" xmlns="http://www.w3.org/2000/svg">
<path d="M22.7269 25.3588C22.8948 25.4427 23.0942 25.4323 23.2621 25.3588L35.5813 19.4615C35.3505 19.4405 35.1197 19.4195 34.8888 19.3986L41.8459 6.11389C42.1398 5.55774 41.5311 4.97013 40.9855 5.27443L28.4039 12.2735C28.1206 12.4309 27.7533 12.347 27.5749 12.0741L19.6419 0.279563C19.3061 -0.22412 18.5191 -0.00377175 18.4876 0.594352L17.8685 11.8538C17.8475 12.284 17.4068 12.5673 17.0081 12.3994L0.869207 5.88304C0.26059 5.64169 -0.27463 6.36574 0.155599 6.86942L10.712 19.43C10.1454 19.4825 20.8906 24.4983 22.7374 25.3588H22.7269Z" fill="#003B23"/>
<path d="M23.8812 54.3941H31.9821L35.0987 43.0402L25.7385 40.249H35.8647L39.3485 27.5729C40.062 24.9916 38.1103 22.4312 35.4345 22.4312H10.3867C7.70035 22.4312 5.75909 24.9811 6.47264 27.5729L7.91023 32.8091H19.7258L8.80221 36.0621L11.7928 46.9542H21.5832L12.5379 49.651L16.0951 62.5999H22.1498L16.5568 64.2684L19.0018 73.1773C20.0931 77.1543 25.7386 77.1543 26.8404 73.1773L31.384 56.6187L23.9022 54.3941H23.8812Z" fill="#003B23"/>
</svg>
