<svg width="51" height="49" viewBox="0 0 51 49" fill="none" xmlns="http://www.w3.org/2000/svg">
<path d="M5.16315 48.58C3.33315 48.58 1.84314 47.09 1.84314 45.26V30.47C1.84314 29.25 2.51315 28.1299 3.58315 27.5499L45.3331 5.01001C45.8231 4.75001 46.3631 4.60999 46.9031 4.60999C48.7331 4.60999 50.2231 6.09993 50.2231 7.92993V25.53C50.2231 26.72 49.5731 27.8299 48.5331 28.4199L48.4632 28.46L6.74315 48.1699C6.25315 48.4399 5.70315 48.58 5.16315 48.58ZM46.9131 6.88C46.7431 6.88 46.5731 6.92001 46.4131 7.01001L4.66315 29.5499C4.32315 29.7299 4.11314 30.09 4.11314 30.48V45.27C4.11314 46.15 5.05314 46.5499 5.68314 46.1899L5.75314 46.15L47.4632 26.45C47.7831 26.26 47.9731 25.9199 47.9731 25.5499V7.94995C47.9731 7.29995 47.4231 6.89001 46.9131 6.89001V6.88Z" fill="#003B23"/>
<path d="M2.54312 25.2999L42.3931 3.20996C43.9431 2.34996 43.3331 0 41.5631 0H7.23312C6.44312 0 5.76312 0.539927 5.57312 1.29993L0.053131 23.39C-0.306869 24.84 1.23312 26.0299 2.54312 25.3099V25.2999Z" fill="#003B23"/>
<path d="M2.97314 35.99L49.0931 11.5499V20.27L2.97314 42.01V35.99Z" fill="#003B23"/>
</svg>
