<svg width="48" height="48" viewBox="0 0 48 48" fill="none" xmlns="http://www.w3.org/2000/svg">
<g id="ring_4575667 1">
<g id="Group">
<path id="Vector" d="M24 1.5C11.5935 1.5 1.5 11.5935 1.5 24C1.5 36.4065 11.5935 46.5 24 46.5C36.4065 46.5 46.5 36.4065 46.5 24C46.5 11.5935 36.4065 1.5 24 1.5ZM24 43.5C13.2473 43.5 4.5 34.7527 4.5 24C4.5 13.2473 13.2473 4.5 24 4.5C34.7527 4.5 43.5 13.2473 43.5 24C43.5 34.7527 34.7527 43.5 24 43.5Z" fill="#03624C"/>
<path id="Vector_2" d="M35.0024 25.8259V23.4961C35.0024 17.8072 30.8607 12.9376 25.5 12.1986V10.7344C25.5 9.906 24.8283 9.23438 24 9.23438C23.1716 9.23438 22.5 9.906 22.5 10.7344V12.1938C20.314 12.4876 18.2765 13.4199 16.6003 14.9443C14.3107 17.0266 12.9975 19.9944 12.9975 23.0874V25.8259C12.9975 27.3611 12.479 28.875 11.5371 30.0872C10.9511 30.8408 10.8486 31.842 11.2675 32.6997C11.6879 33.5574 12.5412 34.0898 13.4963 34.0898H18.9726C19.1762 36.6986 21.3397 38.7656 23.9999 38.7656C26.6602 38.7656 28.8237 36.6986 29.0273 34.0898H34.5036C35.4587 34.0898 36.312 33.5574 36.7324 32.6997C37.1513 31.842 37.0488 30.8408 36.4628 30.0879C35.5209 28.875 35.0024 27.3611 35.0024 25.8259ZM24 35.7656C22.9936 35.7656 22.1535 35.0435 21.9704 34.0898H26.0295C25.8464 35.0435 25.0063 35.7656 24 35.7656ZM14.4895 31.0898C15.4672 29.5181 15.9975 27.6833 15.9975 25.8259V23.0874C15.9975 20.8374 16.9526 18.679 18.6189 17.1643C20.3078 15.6299 22.4963 14.9063 24.791 15.123C28.8347 15.5083 32.0024 19.1865 32.0024 23.4961V25.8259C32.0024 27.6833 32.5327 29.5181 33.5105 31.0898H14.4895Z" fill="#03624C"/>
</g>
</g>
</svg>
